<?xml version="1.0" encoding="UTF-8" standalone="no"?>
<!DOCTYPE svg PUBLIC "-//W3C//DTD SVG 1.1//EN"
 "http://www.w3.org/Graphics/SVG/1.1/DTD/svg11.dtd">
<!-- Generated by graphviz version 2.40.1 (20161225.0304)
 -->
<!-- Title: classes Pages: 1 -->
<svg width="1039pt" height="575pt"
 viewBox="0.00 0.00 1038.50 575.00" xmlns="http://www.w3.org/2000/svg" xmlns:xlink="http://www.w3.org/1999/xlink">
<g id="graph0" class="graph" transform="scale(1 1) rotate(0) translate(4 571)">
<title>classes</title>
<polygon fill="#ffffff" stroke="transparent" points="-4,4 -4,-571 1034.5,-571 1034.5,4 -4,4"/>
<!-- anime.views.anime_view.AddAnimeView -->
<g id="node1" class="node">
<title>anime.views.anime_view.AddAnimeView</title>
<polygon fill="none" stroke="#000000" points="0,-278.5 0,-348.5 107,-348.5 107,-278.5 0,-278.5"/>
<text text-anchor="middle" x="53.5" y="-333.3" font-family="Times,serif" font-size="14.00" fill="#000000">AddAnimeView</text>
<polyline fill="none" stroke="#000000" points="0,-325.5 107,-325.5 "/>
<polyline fill="none" stroke="#000000" points="0,-301.5 107,-301.5 "/>
<text text-anchor="middle" x="53.5" y="-286.3" font-family="Times,serif" font-size="14.00" fill="#000000"> </text>
</g>
<!-- anime.views.base.View -->
<g id="node10" class="node">
<title>anime.views.base.View</title>
<polygon fill="none" stroke="#000000" points="388,-497.5 388,-566.5 457,-566.5 457,-497.5 388,-497.5"/>
<text text-anchor="middle" x="422.5" y="-551.3" font-family="Times,serif" font-size="14.00" fill="#000000">View</text>
<polyline fill="none" stroke="#000000" points="388,-543.5 457,-543.5 "/>
<text text-anchor="start" x="396" y="-528.3" font-family="Times,serif" font-size="14.00" fill="#000000">controller</text>
<polyline fill="none" stroke="#000000" points="388,-520.5 457,-520.5 "/>
<text text-anchor="middle" x="422.5" y="-505.3" font-family="Times,serif" font-size="14.00" fill="#000000"> </text>
</g>
<!-- anime.views.anime_view.AddAnimeView&#45;&gt;anime.views.base.View -->
<g id="edge1" class="edge">
<title>anime.views.anime_view.AddAnimeView&#45;&gt;anime.views.base.View</title>
<path fill="none" stroke="#000000" d="M61.2206,-348.6806C69.6089,-378.7305 85.9553,-420.9562 115.5,-446 155.2712,-479.7124 302.7608,-510.3798 377.8922,-524.2271"/>
<polygon fill="none" stroke="#000000" points="377.5291,-527.7185 387.9946,-526.068 378.784,-520.8319 377.5291,-527.7185"/>
</g>
<!-- anime.views.anime_view.AddEpisodeView -->
<g id="node2" class="node">
<title>anime.views.anime_view.AddEpisodeView</title>
<polygon fill="none" stroke="#000000" points="125,-279 125,-348 238,-348 238,-279 125,-279"/>
<text text-anchor="middle" x="181.5" y="-332.8" font-family="Times,serif" font-size="14.00" fill="#000000">AddEpisodeView</text>
<polyline fill="none" stroke="#000000" points="125,-325 238,-325 "/>
<text text-anchor="start" x="133" y="-309.8" font-family="Times,serif" font-size="14.00" fill="#000000">anime</text>
<polyline fill="none" stroke="#000000" points="125,-302 238,-302 "/>
<text text-anchor="middle" x="181.5" y="-286.8" font-family="Times,serif" font-size="14.00" fill="#000000"> </text>
</g>
<!-- anime.views.anime_view.AddEpisodeView&#45;&gt;anime.views.base.View -->
<g id="edge2" class="edge">
<title>anime.views.anime_view.AddEpisodeView&#45;&gt;anime.views.base.View</title>
<path fill="none" stroke="#000000" d="M191.8156,-348.2745C201.9679,-377.4524 219.9865,-418.6338 247.5,-446 284.1842,-482.4878 339.4443,-506.0614 378.0229,-519.1352"/>
<polygon fill="none" stroke="#000000" points="377.3476,-522.5972 387.9405,-522.3903 379.5306,-515.9463 377.3476,-522.5972"/>
</g>
<!-- anime.models.anime.Anime -->
<g id="node3" class="node">
<title>anime.models.anime.Anime</title>
<polygon fill="none" stroke="#000000" points="259.5,-.5 259.5,-129.5 359.5,-129.5 359.5,-.5 259.5,-.5"/>
<text text-anchor="middle" x="309.5" y="-114.3" font-family="Times,serif" font-size="14.00" fill="#000000">Anime</text>
<polyline fill="none" stroke="#000000" points="259.5,-106.5 359.5,-106.5 "/>
<text text-anchor="start" x="267.5" y="-91.3" font-family="Times,serif" font-size="14.00" fill="#000000">author</text>
<text text-anchor="start" x="267.5" y="-76.3" font-family="Times,serif" font-size="14.00" fill="#000000">episodes</text>
<text text-anchor="start" x="267.5" y="-61.3" font-family="Times,serif" font-size="14.00" fill="#000000">episodes_count</text>
<text text-anchor="start" x="267.5" y="-46.3" font-family="Times,serif" font-size="14.00" fill="#000000">id</text>
<text text-anchor="start" x="267.5" y="-31.3" font-family="Times,serif" font-size="14.00" fill="#000000">name</text>
<polyline fill="none" stroke="#000000" points="259.5,-23.5 359.5,-23.5 "/>
<text text-anchor="middle" x="309.5" y="-8.3" font-family="Times,serif" font-size="14.00" fill="#000000"> </text>
</g>
<!-- anime.models.anime.Anime&#45;&gt;anime.views.anime_view.AddEpisodeView -->
<g id="edge8" class="edge">
<title>anime.models.anime.Anime&#45;&gt;anime.views.anime_view.AddEpisodeView</title>
<path fill="none" stroke="#000000" d="M274.5736,-129.5555C265.6513,-146.2618 256.1408,-164.2596 247.5,-181 232.6628,-209.7451 216.4601,-242.2561 203.8217,-267.8801"/>
<polygon fill="#000000" stroke="#000000" points="203.7613,-268.0028 204.6999,-275.1526 198.4611,-278.7689 197.5225,-271.6191 203.7613,-268.0028"/>
<text text-anchor="middle" x="281.5" y="-151.8" font-family="Times,serif" font-size="14.00" fill="#00ff00">anime</text>
</g>
<!-- anime.views.anime_view.AnimeEditView -->
<g id="node4" class="node">
<title>anime.views.anime_view.AnimeEditView</title>
<polygon fill="none" stroke="#000000" points="256.5,-279 256.5,-348 362.5,-348 362.5,-279 256.5,-279"/>
<text text-anchor="middle" x="309.5" y="-332.8" font-family="Times,serif" font-size="14.00" fill="#000000">AnimeEditView</text>
<polyline fill="none" stroke="#000000" points="256.5,-325 362.5,-325 "/>
<text text-anchor="start" x="264.5" y="-309.8" font-family="Times,serif" font-size="14.00" fill="#000000">anime</text>
<polyline fill="none" stroke="#000000" points="256.5,-302 362.5,-302 "/>
<text text-anchor="middle" x="309.5" y="-286.8" font-family="Times,serif" font-size="14.00" fill="#000000"> </text>
</g>
<!-- anime.models.anime.Anime&#45;&gt;anime.views.anime_view.AnimeEditView -->
<g id="edge9" class="edge">
<title>anime.models.anime.Anime&#45;&gt;anime.views.anime_view.AnimeEditView</title>
<path fill="none" stroke="#000000" d="M309.5,-129.6417C309.5,-172.5006 309.5,-227.7603 309.5,-266.4623"/>
<polygon fill="#000000" stroke="#000000" points="309.5001,-266.6599 313.5,-272.6599 309.5,-278.6599 305.5,-272.6599 309.5001,-266.6599"/>
<text text-anchor="middle" x="326.5" y="-151.8" font-family="Times,serif" font-size="14.00" fill="#00ff00">anime</text>
</g>
<!-- anime.views.anime_view.AnimeView -->
<g id="node5" class="node">
<title>anime.views.anime_view.AnimeView</title>
<polygon fill="none" stroke="#000000" points="381,-279 381,-348 464,-348 464,-279 381,-279"/>
<text text-anchor="middle" x="422.5" y="-332.8" font-family="Times,serif" font-size="14.00" fill="#000000">AnimeView</text>
<polyline fill="none" stroke="#000000" points="381,-325 464,-325 "/>
<text text-anchor="start" x="389" y="-309.8" font-family="Times,serif" font-size="14.00" fill="#000000">anime</text>
<polyline fill="none" stroke="#000000" points="381,-302 464,-302 "/>
<text text-anchor="middle" x="422.5" y="-286.8" font-family="Times,serif" font-size="14.00" fill="#000000"> </text>
</g>
<!-- anime.models.anime.Anime&#45;&gt;anime.views.anime_view.AnimeView -->
<g id="edge10" class="edge">
<title>anime.models.anime.Anime&#45;&gt;anime.views.anime_view.AnimeView</title>
<path fill="none" stroke="#000000" d="M345.8556,-129.6261C354.6594,-146.1723 363.7564,-164.077 371.5,-181 384.4406,-209.2806 397.0142,-241.8712 406.439,-267.6531"/>
<polygon fill="#000000" stroke="#000000" points="406.4544,-267.6959 412.2574,-271.9768 410.5377,-278.9798 404.7347,-274.699 406.4544,-267.6959"/>
<text text-anchor="middle" x="379.5" y="-151.8" font-family="Times,serif" font-size="14.00" fill="#00ff00">anime</text>
</g>
<!-- anime.views.anime_view.AnimeEditView&#45;&gt;anime.views.base.View -->
<g id="edge3" class="edge">
<title>anime.views.anime_view.AnimeEditView&#45;&gt;anime.views.base.View</title>
<path fill="none" stroke="#000000" d="M324.6503,-348.2686C336.6796,-375.2616 354.2836,-413.4461 371.5,-446 378.9558,-460.098 387.6289,-475.1536 395.6851,-488.6636"/>
<polygon fill="none" stroke="#000000" points="392.72,-490.5246 400.8711,-497.2929 398.7198,-486.9187 392.72,-490.5246"/>
</g>
<!-- anime.views.anime_view.AnimeView&#45;&gt;anime.views.base.View -->
<g id="edge4" class="edge">
<title>anime.views.anime_view.AnimeView&#45;&gt;anime.views.base.View</title>
<path fill="none" stroke="#000000" d="M422.5,-348.122C422.5,-385.7283 422.5,-445.9329 422.5,-487.1378"/>
<polygon fill="none" stroke="#000000" points="419.0001,-487.1789 422.5,-497.1789 426.0001,-487.179 419.0001,-487.1789"/>
</g>
<!-- anime.views.anime_view.AnimesListView -->
<g id="node6" class="node">
<title>anime.views.anime_view.AnimesListView</title>
<polygon fill="none" stroke="#000000" points="482.5,-279 482.5,-348 616.5,-348 616.5,-279 482.5,-279"/>
<text text-anchor="middle" x="549.5" y="-332.8" font-family="Times,serif" font-size="14.00" fill="#000000">AnimesListView</text>
<polyline fill="none" stroke="#000000" points="482.5,-325 616.5,-325 "/>
<text text-anchor="start" x="490.5" y="-309.8" font-family="Times,serif" font-size="14.00" fill="#000000">animes : List[Anime]</text>
<polyline fill="none" stroke="#000000" points="482.5,-302 616.5,-302 "/>
<text text-anchor="middle" x="549.5" y="-286.8" font-family="Times,serif" font-size="14.00" fill="#000000"> </text>
</g>
<!-- anime.views.anime_view.AnimesListView&#45;&gt;anime.views.base.View -->
<g id="edge5" class="edge">
<title>anime.views.anime_view.AnimesListView&#45;&gt;anime.views.base.View</title>
<path fill="none" stroke="#000000" d="M529.3765,-348.122C507.2868,-386.1266 471.7824,-447.211 447.8181,-488.4408"/>
<polygon fill="none" stroke="#000000" points="444.7385,-486.7744 442.7392,-497.1789 450.7905,-490.2921 444.7385,-486.7744"/>
</g>
<!-- anime.controllers.controller.Controller -->
<g id="node7" class="node">
<title>anime.controllers.controller.Controller</title>
<polygon fill="none" stroke="#000000" points="635,-181.5 635,-445.5 900,-445.5 900,-181.5 635,-181.5"/>
<text text-anchor="middle" x="767.5" y="-430.3" font-family="Times,serif" font-size="14.00" fill="#000000">Controller</text>
<polyline fill="none" stroke="#000000" points="635,-422.5 900,-422.5 "/>
<text text-anchor="start" x="643" y="-407.3" font-family="Times,serif" font-size="14.00" fill="#000000">engine</text>
<text text-anchor="start" x="643" y="-392.3" font-family="Times,serif" font-size="14.00" fill="#000000">root : Tk</text>
<polyline fill="none" stroke="#000000" points="635,-384.5 900,-384.5 "/>
<text text-anchor="start" x="643" y="-369.3" font-family="Times,serif" font-size="14.00" fill="#000000">add_anime(name, author, episodes_list)</text>
<text text-anchor="start" x="643" y="-354.3" font-family="Times,serif" font-size="14.00" fill="#000000">add_episode(name, number, anime)</text>
<text text-anchor="start" x="643" y="-339.3" font-family="Times,serif" font-size="14.00" fill="#000000">delete_anime(anime)</text>
<text text-anchor="start" x="643" y="-324.3" font-family="Times,serif" font-size="14.00" fill="#000000">delete_episode(episode)</text>
<text text-anchor="start" x="643" y="-309.3" font-family="Times,serif" font-size="14.00" fill="#000000">display_add_anime()</text>
<text text-anchor="start" x="643" y="-294.3" font-family="Times,serif" font-size="14.00" fill="#000000">display_add_episode(anime)</text>
<text text-anchor="start" x="643" y="-279.3" font-family="Times,serif" font-size="14.00" fill="#000000">display_anime(anime_title)</text>
<text text-anchor="start" x="643" y="-264.3" font-family="Times,serif" font-size="14.00" fill="#000000">display_animes_list()</text>
<text text-anchor="start" x="643" y="-249.3" font-family="Times,serif" font-size="14.00" fill="#000000">edit_anime(anime)</text>
<text text-anchor="start" x="643" y="-234.3" font-family="Times,serif" font-size="14.00" fill="#000000">edit_episode(episode)</text>
<text text-anchor="start" x="643" y="-219.3" font-family="Times,serif" font-size="14.00" fill="#000000">reset()</text>
<text text-anchor="start" x="643" y="-204.3" font-family="Times,serif" font-size="14.00" fill="#000000">update_anime(anime, new_title, new_author)</text>
<text text-anchor="start" x="643" y="-189.3" font-family="Times,serif" font-size="14.00" fill="#000000">update_episode(episode_id, new_title)</text>
</g>
<!-- anime.controllers.controller.Controller&#45;&gt;anime.views.base.View -->
<g id="edge7" class="edge">
<title>anime.controllers.controller.Controller&#45;&gt;anime.views.base.View</title>
<path fill="none" stroke="#000000" d="M634.8123,-439.7382C631.7169,-441.89 628.611,-443.9805 625.5,-446 575.6128,-478.3833 511.4943,-503.1397 468.8017,-517.5967"/>
<polygon fill="#000000" stroke="#000000" points="468.7459,-517.6152 464.3132,-523.3031 457.358,-521.399 461.7907,-515.7112 468.7459,-517.6152"/>
<text text-anchor="middle" x="622" y="-467.8" font-family="Times,serif" font-size="14.00" fill="#00ff00">controller</text>
</g>
<!-- anime.models.anime.Episode -->
<g id="node8" class="node">
<title>anime.models.anime.Episode</title>
<polygon fill="none" stroke="#000000" points="940.5,-.5 940.5,-129.5 1008.5,-129.5 1008.5,-.5 940.5,-.5"/>
<text text-anchor="middle" x="974.5" y="-114.3" font-family="Times,serif" font-size="14.00" fill="#000000">Episode</text>
<polyline fill="none" stroke="#000000" points="940.5,-106.5 1008.5,-106.5 "/>
<text text-anchor="start" x="948.5" y="-91.3" font-family="Times,serif" font-size="14.00" fill="#000000">anime</text>
<text text-anchor="start" x="948.5" y="-76.3" font-family="Times,serif" font-size="14.00" fill="#000000">anime_id</text>
<text text-anchor="start" x="948.5" y="-61.3" font-family="Times,serif" font-size="14.00" fill="#000000">id</text>
<text text-anchor="start" x="948.5" y="-46.3" font-family="Times,serif" font-size="14.00" fill="#000000">name</text>
<text text-anchor="start" x="948.5" y="-31.3" font-family="Times,serif" font-size="14.00" fill="#000000">number</text>
<polyline fill="none" stroke="#000000" points="940.5,-23.5 1008.5,-23.5 "/>
<text text-anchor="middle" x="974.5" y="-8.3" font-family="Times,serif" font-size="14.00" fill="#000000"> </text>
</g>
<!-- anime.views.anime_view.EpisodeEditView -->
<g id="node9" class="node">
<title>anime.views.anime_view.EpisodeEditView</title>
<polygon fill="none" stroke="#000000" points="918.5,-279 918.5,-348 1030.5,-348 1030.5,-279 918.5,-279"/>
<text text-anchor="middle" x="974.5" y="-332.8" font-family="Times,serif" font-size="14.00" fill="#000000">EpisodeEditView</text>
<polyline fill="none" stroke="#000000" points="918.5,-325 1030.5,-325 "/>
<text text-anchor="start" x="926.5" y="-309.8" font-family="Times,serif" font-size="14.00" fill="#000000">episode</text>
<polyline fill="none" stroke="#000000" points="918.5,-302 1030.5,-302 "/>
<text text-anchor="middle" x="974.5" y="-286.8" font-family="Times,serif" font-size="14.00" fill="#000000"> </text>
</g>
<!-- anime.models.anime.Episode&#45;&gt;anime.views.anime_view.EpisodeEditView -->
<g id="edge11" class="edge">
<title>anime.models.anime.Episode&#45;&gt;anime.views.anime_view.EpisodeEditView</title>
<path fill="none" stroke="#000000" d="M974.5,-129.6417C974.5,-172.5006 974.5,-227.7603 974.5,-266.4623"/>
<polygon fill="#000000" stroke="#000000" points="974.5001,-266.6599 978.5,-272.6599 974.5,-278.6599 970.5,-272.6599 974.5001,-266.6599"/>
<text text-anchor="middle" x="995.5" y="-151.8" font-family="Times,serif" font-size="14.00" fill="#00ff00">episode</text>
</g>
<!-- anime.views.anime_view.EpisodeEditView&#45;&gt;anime.views.base.View -->
<g id="edge6" class="edge">
<title>anime.views.anime_view.EpisodeEditView&#45;&gt;anime.views.base.View</title>
<path fill="none" stroke="#000000" d="M966.8697,-348.2501C958.2641,-378.8733 941.1394,-422.2083 909.5,-446 839.7703,-498.4343 573.8272,-521.8165 467.1556,-529.228"/>
<polygon fill="none" stroke="#000000" points="466.7817,-525.7452 457.0422,-529.9157 467.2567,-532.7291 466.7817,-525.7452"/>
</g>
</g>
</svg>
