<?xml version="1.0" encoding="UTF-8" standalone="no"?>
<!DOCTYPE svg PUBLIC "-//W3C//DTD SVG 1.1//EN"
 "http://www.w3.org/Graphics/SVG/1.1/DTD/svg11.dtd">
<!-- Generated by graphviz version 2.40.1 (20161225.0304)
 -->
<!-- Title: packages Pages: 1 -->
<svg width="1152pt" height="188pt"
 viewBox="0.00 0.00 1152.00 188.00" xmlns="http://www.w3.org/2000/svg" xmlns:xlink="http://www.w3.org/1999/xlink">
<g id="graph0" class="graph" transform="scale(1 1) rotate(0) translate(4 184)">
<title>packages</title>
<polygon fill="#ffffff" stroke="transparent" points="-4,4 -4,-184 1148,-184 1148,4 -4,4"/>
<!-- anime -->
<g id="node1" class="node">
<title>anime</title>
<polygon fill="none" stroke="#000000" points="54,-36 0,-36 0,0 54,0 54,-36"/>
<text text-anchor="middle" x="27" y="-14.3" font-family="Times,serif" font-size="14.00" fill="#000000">anime</text>
</g>
<!-- anime.controllers -->
<g id="node2" class="node">
<title>anime.controllers</title>
<polygon fill="none" stroke="#000000" points="184,-36 72,-36 72,0 184,0 184,-36"/>
<text text-anchor="middle" x="128" y="-14.3" font-family="Times,serif" font-size="14.00" fill="#000000">anime.controllers</text>
</g>
<!-- anime.controllers.controller -->
<g id="node3" class="node">
<title>anime.controllers.controller</title>
<polygon fill="none" stroke="#000000" points="370,-36 202,-36 202,0 370,0 370,-36"/>
<text text-anchor="middle" x="286" y="-14.3" font-family="Times,serif" font-size="14.00" fill="#000000">anime.controllers.controller</text>
</g>
<!-- anime.models.anime -->
<g id="node5" class="node">
<title>anime.models.anime</title>
<polygon fill="none" stroke="#000000" points="263.5,-180 132.5,-180 132.5,-144 263.5,-144 263.5,-180"/>
<text text-anchor="middle" x="198" y="-158.3" font-family="Times,serif" font-size="14.00" fill="#000000">anime.models.anime</text>
</g>
<!-- anime.controllers.controller&#45;&gt;anime.models.anime -->
<g id="edge1" class="edge">
<title>anime.controllers.controller&#45;&gt;anime.models.anime</title>
<path fill="none" stroke="#000000" d="M238.6354,-36.2137C223.2168,-44.6533 207.8154,-56.3581 199,-72 188.4975,-90.6354 188.9414,-115.0761 191.6278,-133.7845"/>
<polygon fill="#000000" stroke="#000000" points="193.349,-143.7821 187.2175,-134.6906 192.5006,-138.8546 191.6523,-133.9271 191.6523,-133.9271 191.6523,-133.9271 192.5006,-138.8546 196.087,-133.1636 193.349,-143.7821 193.349,-143.7821"/>
</g>
<!-- anime.views.anime_view -->
<g id="node8" class="node">
<title>anime.views.anime_view</title>
<polygon fill="none" stroke="#000000" points="364,-108 208,-108 208,-72 364,-72 364,-108"/>
<text text-anchor="middle" x="286" y="-86.3" font-family="Times,serif" font-size="14.00" fill="#000000">anime.views.anime_view</text>
</g>
<!-- anime.controllers.controller&#45;&gt;anime.views.anime_view -->
<g id="edge2" class="edge">
<title>anime.controllers.controller&#45;&gt;anime.views.anime_view</title>
<path fill="none" stroke="#000000" d="M280.0476,-36.1686C279.2972,-43.869 279.0763,-53.0257 279.3849,-61.5834"/>
<polygon fill="#000000" stroke="#000000" points="280.024,-71.5867 274.8955,-61.894 279.7052,-66.5969 279.3863,-61.6071 279.3863,-61.6071 279.3863,-61.6071 279.7052,-66.5969 283.8772,-61.3201 280.024,-71.5867 280.024,-71.5867"/>
</g>
<!-- anime.models -->
<g id="node4" class="node">
<title>anime.models</title>
<polygon fill="none" stroke="#000000" points="482,-36 388,-36 388,0 482,0 482,-36"/>
<text text-anchor="middle" x="435" y="-14.3" font-family="Times,serif" font-size="14.00" fill="#000000">anime.models</text>
</g>
<!-- anime.views -->
<g id="node6" class="node">
<title>anime.views</title>
<polygon fill="none" stroke="#000000" points="586,-36 500,-36 500,0 586,0 586,-36"/>
<text text-anchor="middle" x="543" y="-14.3" font-family="Times,serif" font-size="14.00" fill="#000000">anime.views</text>
</g>
<!-- anime.views.admin_interface -->
<g id="node7" class="node">
<title>anime.views.admin_interface</title>
<polygon fill="none" stroke="#000000" points="782,-36 604,-36 604,0 782,0 782,-36"/>
<text text-anchor="middle" x="693" y="-14.3" font-family="Times,serif" font-size="14.00" fill="#000000">anime.views.admin_interface</text>
</g>
<!-- anime.views.anime_view&#45;&gt;anime.controllers.controller -->
<g id="edge3" class="edge">
<title>anime.views.anime_view&#45;&gt;anime.controllers.controller</title>
<path fill="none" stroke="#000000" d="M291.976,-71.5867C292.7071,-63.9407 292.9203,-54.8916 292.6155,-46.4274"/>
<polygon fill="#000000" stroke="#000000" points="291.9524,-36.1686 297.0881,-45.8575 292.2749,-41.1582 292.5975,-46.1478 292.5975,-46.1478 292.5975,-46.1478 292.2749,-41.1582 288.1069,-46.4381 291.9524,-36.1686 291.9524,-36.1686"/>
</g>
<!-- anime.views.anime_view&#45;&gt;anime.models.anime -->
<g id="edge4" class="edge">
<title>anime.views.anime_view&#45;&gt;anime.models.anime</title>
<path fill="none" stroke="#000000" d="M263.7939,-108.1686C252.955,-117.0368 239.7556,-127.8363 228.0322,-137.4282"/>
<polygon fill="#000000" stroke="#000000" points="220.199,-143.8372 225.089,-134.0219 224.0688,-140.671 227.9386,-137.5048 227.9386,-137.5048 227.9386,-137.5048 224.0688,-140.671 230.7882,-140.9876 220.199,-143.8372 220.199,-143.8372"/>
</g>
<!-- anime.views.base -->
<g id="node9" class="node">
<title>anime.views.base</title>
<polygon fill="none" stroke="#000000" points="430.5,-180 317.5,-180 317.5,-144 430.5,-144 430.5,-180"/>
<text text-anchor="middle" x="374" y="-158.3" font-family="Times,serif" font-size="14.00" fill="#000000">anime.views.base</text>
</g>
<!-- anime.views.anime_view&#45;&gt;anime.views.base -->
<g id="edge5" class="edge">
<title>anime.views.anime_view&#45;&gt;anime.views.base</title>
<path fill="none" stroke="#000000" d="M308.2061,-108.1686C319.045,-117.0368 332.2444,-127.8363 343.9678,-137.4282"/>
<polygon fill="#000000" stroke="#000000" points="351.801,-143.8372 341.2118,-140.9876 347.9312,-140.671 344.0614,-137.5048 344.0614,-137.5048 344.0614,-137.5048 347.9312,-140.671 346.911,-134.0219 351.801,-143.8372 351.801,-143.8372"/>
</g>
<!-- anime.views.base&#45;&gt;anime.controllers.controller -->
<g id="edge6" class="edge">
<title>anime.views.base&#45;&gt;anime.controllers.controller</title>
<path fill="none" stroke="#000000" d="M378.651,-143.7821C382.4913,-124.6087 385.5052,-94.1891 373,-72 365.8375,-59.291 354.3272,-49.181 341.9924,-41.3098"/>
<polygon fill="#000000" stroke="#000000" points="333.3646,-36.2137 344.2634,-37.4248 337.6697,-38.7566 341.9748,-41.2994 341.9748,-41.2994 341.9748,-41.2994 337.6697,-38.7566 339.6862,-45.174 333.3646,-36.2137 333.3646,-36.2137"/>
</g>
<!-- anime.views.page_accueil -->
<g id="node10" class="node">
<title>anime.views.page_accueil</title>
<polygon fill="none" stroke="#000000" points="960,-36 800,-36 800,0 960,0 960,-36"/>
<text text-anchor="middle" x="880" y="-14.3" font-family="Times,serif" font-size="14.00" fill="#000000">anime.views.page_accueil</text>
</g>
<!-- anime.views.user_interface -->
<g id="node11" class="node">
<title>anime.views.user_interface</title>
<polygon fill="none" stroke="#000000" points="1144,-36 978,-36 978,0 1144,0 1144,-36"/>
<text text-anchor="middle" x="1061" y="-14.3" font-family="Times,serif" font-size="14.00" fill="#000000">anime.views.user_interface</text>
</g>
</g>
</svg>
